# xmcd
#
# Track frame offsets:
#	150
#	18705
#	41700
#	76157
#	111892
#
# Disc length: 1742 seconds
#
# Revision: 1
# Processed by: cddbd v1.5.1PL0 Copyright (c) Steve Scherf et al.
# Submitted via: audiograbber 1.83.01
#
DISCID=3706cc05
DTITLE=Ottoman Millitary Project - Ceddin Deden
DYEAR=1900
DGENRE=
TTITLE0=Radio 2000 Mix
TTITLE1=Trance Mix (Short)
TTITLE2=Trance Mix (Long)
TTITLE3=Alan Allen Mix
TTITLE4=Radio 2000 Future Mix
EXTD=
EXTT0=
EXTT1=
EXTT2=
EXTT3=
EXTT4=
PLAYORDER=
